<svg width="60" height="60" viewBox="0 0 60 60" fill="none" xmlns="http://www.w3.org/2000/svg">
<g clip-path="url(#clip0_2497_2)">
<path d="M0.497974 17.604L28.794 31.752C29.46 32.082 30.54 32.082 31.206 31.752L59.502 17.604C60.168 17.268 60.168 16.728 59.502 16.398L31.206 2.24999C30.54 1.91399 29.46 1.91399 28.794 2.24999L0.497974 16.398C-0.168026 16.728 -0.168026 17.268 0.497974 17.604Z" fill="#1C1A1D"/>
<path opacity="0.4" d="M51.762 35.814L59.502 39.828C60.168 40.176 60.168 40.734 59.502 41.076L31.206 55.74C30.54 56.088 29.46 56.088 28.794 55.74L0.497974 41.076C-0.168026 40.734 -0.168026 40.176 0.497974 39.828L8.23797 35.82L28.602 46.368C29.37 46.77 30.624 46.77 31.392 46.368L51.762 35.814ZM51.762 24L59.502 28.014C60.168 28.356 60.168 28.914 59.502 29.262L31.206 43.926C30.54 44.268 29.46 44.268 28.794 43.926L0.497974 29.262C-0.168026 28.914 -0.168026 28.356 0.497974 28.014L8.23797 24L28.602 34.554C29.37 34.956 30.624 34.956 31.392 34.554L51.762 24Z" fill="#1C1A1D"/>
</g>
<defs>
<clipPath id="clip0_2497_2">
<rect width="60" height="60" fill="white"/>
</clipPath>
</defs>
</svg>
