<svg width="60" height="60" viewBox="0 0 60 60" fill="none" xmlns="http://www.w3.org/2000/svg">
<path d="M13.536 29.49L13.452 28.896C13.428 28.818 13.386 28.746 13.326 28.692C12.474 27.804 12.012 26.622 12.03 25.398C12.138 22.992 13.986 21.018 16.41 20.724L17.898 20.52C20.304 20.148 22.632 21.54 23.406 23.82C23.766 24.99 23.652 26.25 23.088 27.342C23.046 27.408 23.022 27.486 23.022 27.57L23.106 28.164C23.118 28.236 23.16 28.308 23.22 28.35C23.28 28.398 23.358 28.416 23.436 28.404L31.764 27.252L30.726 19.992C30.558 18.792 31.404 17.688 32.622 17.52L33.228 17.436C33.702 17.376 34.182 17.46 34.602 17.682C35.262 18.018 36.03 18.09 36.744 17.874C38.142 17.388 38.988 15.978 38.736 14.532L38.526 13.068C38.364 11.61 37.158 10.482 35.676 10.398C34.932 10.38 34.212 10.656 33.672 11.154C33.33 11.484 32.892 11.7 32.418 11.778L31.812 11.856C30.6 12.03 29.472 11.19 29.304 9.99599L28.134 1.78799L7.074 4.70399C4.434 5.07599 2.592 7.48199 2.958 10.086L5.916 30.834L13.29 29.814C13.368 29.802 13.434 29.76 13.482 29.7C13.53 29.64 13.548 29.562 13.536 29.49Z" fill="white"/>
<path opacity="0.4" d="M17.004 23.454H18.504C19.992 23.412 21.288 24.432 21.582 25.866C21.684 26.484 21.57 27.114 21.264 27.66L21.096 27.924C20.874 28.23 20.73 28.584 20.676 28.95L20.652 29.232V29.832C20.652 30.966 21.522 31.896 22.632 32.01L22.878 32.022H31.284V40.314C31.284 40.392 31.254 40.464 31.2 40.518C31.164 40.554 31.122 40.578 31.074 40.59L30.996 40.602H30.384C30.33 40.59 30.282 40.572 30.234 40.548L30.168 40.506C29.91 40.332 29.64 40.176 29.358 40.056C28.518 39.684 27.582 39.558 26.67 39.702C24.384 40.122 22.704 42.03 22.59 44.292L22.584 44.616V46.098C22.548 48.504 24.27 50.58 26.67 51.018C27.762 51.186 28.872 50.976 29.82 50.436L30.168 50.214C30.21 50.184 30.258 50.154 30.306 50.136L30.384 50.118H30.996C31.074 50.118 31.146 50.148 31.2 50.202C31.236 50.238 31.266 50.286 31.278 50.334L31.284 50.406V57.738H10.02C7.46401 57.738 5.37001 55.782 5.19601 53.304L5.18401 52.98V32.022H12.63C13.218 32.022 13.782 31.794 14.202 31.386C14.562 31.032 14.784 30.57 14.838 30.084L14.856 29.832V29.232C14.85 28.854 14.748 28.488 14.562 28.164L14.412 27.924C13.98 27.33 13.806 26.592 13.92 25.866C14.196 24.522 15.36 23.538 16.728 23.46L17.004 23.454ZM33.222 32.022H40.668C40.794 32.022 40.902 32.106 40.944 32.22L40.956 32.31V32.91C40.95 32.964 40.932 33.018 40.908 33.06L40.86 33.126C40.146 34.128 39.852 35.364 40.044 36.576C40.47 38.826 42.408 40.476 44.706 40.59L45.036 40.596H46.542C48.978 40.638 51.084 38.934 51.528 36.576C51.72 35.364 51.432 34.128 50.718 33.126C50.682 33.084 50.658 33.042 50.64 32.988L50.622 32.91V32.31C50.622 32.184 50.7 32.076 50.82 32.04L50.91 32.022H59.322V52.98C59.316 55.494 57.33 57.558 54.816 57.726L54.486 57.738H33.222V50.406C33.222 49.278 32.352 48.348 31.236 48.228L30.996 48.216H30.384C30.006 48.222 29.628 48.318 29.298 48.498L29.058 48.654C28.452 49.074 27.702 49.248 26.964 49.134C25.602 48.864 24.606 47.718 24.522 46.374V46.098V44.616C24.474 43.152 25.512 41.874 26.964 41.586C27.594 41.484 28.236 41.598 28.788 41.898L29.058 42.066C29.364 42.288 29.724 42.426 30.102 42.48L30.384 42.504H30.996C32.142 42.504 33.084 41.646 33.204 40.548L33.222 40.308V32.022Z" fill="white"/>
</svg>
