<svg width="60" height="60" viewBox="0 0 60 60" fill="none" xmlns="http://www.w3.org/2000/svg">
<g clip-path="url(#clip0_2499_45)">
<path d="M5.814 46.686C11.25 53.814 19.692 58.314 29.25 58.314C38.814 58.314 47.442 53.628 52.692 46.686L29.25 33.186L5.814 46.686Z" fill="#1C1A1D"/>
<path opacity="0.4" d="M25.692 0V27L2.25002 40.5C0.750015 36.936 1.49391e-05 33.186 1.49391e-05 29.064C-0.185985 14.064 11.064 1.686 25.692 0ZM33 27V0C47.442 1.686 58.692 14.064 58.692 29.064C58.692 32.868 57.888 36.36 56.736 39.672L56.442 40.5L33 27Z" fill="#1C1A1D"/>
</g>
<defs>
<clipPath id="clip0_2499_45">
<rect width="60" height="60" fill="white"/>
</clipPath>
</defs>
</svg>
