<svg width="88" height="88" viewBox="0 0 88 88" fill="none" xmlns="http://www.w3.org/2000/svg">
<path d="M82.5 35.75C82.5 40.9225 81.5009 45.9093 79.5325 50.5689C73.3664 65.4038 64.6707 71.473 49.5322 71.5C49.5294 71.5 49.5294 71.5 49.5267 71.5C48.216 71.5 47.0882 70.5763 46.8303 69.2926C46.5723 68.0061 47.2574 66.7172 48.4685 66.2123C55.7249 63.1884 57.9054 59.6461 60.4596 52.2503H55C50.4507 52.2503 46.75 48.5496 46.75 44.0003V24.75C46.75 20.2007 50.4507 16.5 55 16.5H74.113C75.0475 16.5 75.9203 16.9755 76.4252 17.7623C80.0938 23.4636 82.5 27.7954 82.5 35.75ZM32.8631 16.5H13.75C9.20068 16.5 5.5 20.2007 5.5 24.75V44C5.5 48.5493 9.20068 52.25 13.75 52.25H19.2099C16.6559 59.6461 14.4752 63.1881 7.21875 66.212C6.00765 66.7169 5.32262 68.0059 5.58057 69.2923C5.83825 70.5763 6.9663 71.5 8.27695 71.5H8.28245C23.4209 71.473 32.1167 65.4038 38.2827 50.5689C40.2509 45.9093 41.25 40.9225 41.25 35.75C41.25 27.7954 38.8438 23.4636 35.1753 17.7623C34.6704 16.9755 33.7975 16.5 32.8631 16.5Z" fill="#C7C7C7"/>
</svg>
