<svg width="80" height="80" viewBox="0 0 80 80" fill="none" xmlns="http://www.w3.org/2000/svg">
<path d="M24.5437 20.2675C28.5972 21.3641 34.0865 21.9681 39.9999 21.9681C45.9134 21.9681 51.4027 21.3641 55.4562 20.2675C60.4267 18.9228 62.9469 16.9261 62.9469 14.3324C62.9469 11.7389 60.4267 9.74203 55.4562 8.39741C51.4025 7.30076 45.9134 6.69678 39.9999 6.69678C34.0865 6.69678 28.5974 7.30076 24.5437 8.39741C19.5732 9.74203 17.053 11.7389 17.053 14.3324C17.053 16.9259 19.5732 18.9227 24.5437 20.2675ZM25.489 11.8917C29.2432 10.876 34.3967 10.3167 39.9999 10.3167C45.6032 10.3167 50.7567 10.876 54.5109 11.8917C58.4897 12.9681 59.327 14.1453 59.327 14.3324C59.327 14.5196 58.4899 15.6968 54.5109 16.7732C50.7567 17.7887 45.6032 18.3482 39.9999 18.3482C34.3967 18.3482 29.2432 17.7889 25.489 16.7732C21.5102 15.6968 20.6729 14.5196 20.6729 14.3324C20.6729 14.1453 21.51 12.9679 25.489 11.8917Z" fill="white"/>
<path d="M61.1956 3.81629C55.5042 1.35529 47.9768 0 39.9999 0C32.0231 0 24.4957 1.35529 18.8043 3.81629C12.6307 6.48597 9.23071 10.2206 9.23071 14.3325V60.0326C9.23071 65.5285 12.5444 70.6328 18.5612 74.4054C24.3152 78.013 31.929 80 39.9999 80C48.0709 80 55.6847 78.013 61.4387 74.4053C67.4555 70.6328 70.7692 65.5283 70.7692 60.0324V14.3325C70.7692 10.2206 67.3692 6.48597 61.1956 3.81629ZM20.241 7.139C25.489 4.86968 32.5062 3.61991 39.9999 3.61991C47.4937 3.61991 54.5109 4.86968 59.7589 7.139C64.4555 9.16996 67.1493 11.7917 67.1493 14.3325C67.1493 16.9839 64.2604 19.6878 59.2235 21.7506C58.5437 22.029 58.0995 22.6909 58.0995 23.4255V45.1271C58.0995 45.726 57.6124 46.213 57.0135 46.213C56.4146 46.213 55.9275 45.726 55.9275 45.1271V25.2677C55.9275 24.7128 55.6731 24.1886 55.2369 23.8454C54.8007 23.5023 54.2311 23.3779 53.6921 23.5086C51.9208 23.937 50.0372 24.282 48.0932 24.5339C47.1911 24.6509 46.5158 25.4192 46.5158 26.3289V61.4168C46.5158 62.0157 46.0287 62.5028 45.4298 62.5028C44.8309 62.5028 44.3438 62.0157 44.3438 61.4168V26.8069C44.3438 26.3151 44.1438 25.8445 43.7894 25.5033C43.4515 25.1779 43.0014 24.9969 42.5339 24.9969C42.5113 24.9969 42.4886 24.9973 42.466 24.9982C41.6338 25.0293 40.8039 25.0452 39.9999 25.0452C32.5062 25.0452 25.489 23.7955 20.241 21.5262C15.5444 19.4948 12.8506 16.8731 12.8506 14.3325C12.8506 11.7919 15.5444 9.16996 20.241 7.139ZM59.5158 71.3385C54.3304 74.5895 47.3996 76.3801 39.9999 76.3801C32.6003 76.3801 25.6694 74.5895 20.4841 71.3385C15.5616 68.2519 12.8506 64.2367 12.8506 60.0324V21.2483C14.382 22.5848 16.3779 23.7991 18.8043 24.8483C24.4957 27.3095 32.0231 28.6648 39.9999 28.6648C40.2394 28.6648 40.4809 28.6635 40.7239 28.6608V61.4167C40.7239 64.0114 42.8351 66.1225 45.4298 66.1225C48.0246 66.1225 50.1357 64.0114 50.1357 61.4167V27.8981C50.8704 27.7832 51.5949 27.6554 52.3076 27.5155V45.1271C52.3076 47.7218 54.4188 49.8329 57.0135 49.8329C59.6083 49.8329 61.7194 47.7218 61.7194 45.1271V24.6159C63.9107 23.6221 65.7303 22.4918 67.1493 21.2559V60.0322C67.1493 64.2367 64.4383 68.2519 59.5158 71.3385Z" fill="white"/>
</svg>
