<svg width="80" height="80" viewBox="0 0 80 80" fill="none" xmlns="http://www.w3.org/2000/svg">
<g clip-path="url(#clip0_2621_732)">
<path d="M68.2843 11.7157C60.7292 4.16072 50.6843 0 40 0C29.3157 0 19.2708 4.16072 11.7157 11.7157C4.16054 19.2706 0 29.3157 0 40C0 50.6843 4.16072 60.7292 11.7157 68.2843C19.2706 75.8395 29.3157 80 40 80C50.6843 80 60.7292 75.8393 68.2843 68.2843C75.8395 60.7294 80 50.6843 80 40C80 29.3157 75.8393 19.2708 68.2843 11.7157ZM3.61991 40C3.61991 19.9399 19.9399 3.61991 40 3.61991C55.5209 3.61991 68.8004 13.391 74.0165 27.1037C71.5099 26.6192 68.9519 26.3738 66.377 26.3738C55.6927 26.3738 45.6478 30.5345 38.0927 38.0894C30.5377 45.6445 26.377 55.6894 26.377 66.3738C26.377 68.9502 26.6228 71.5099 27.1081 74.0181C13.3929 68.8031 3.61991 55.5224 3.61991 40ZM29.9967 66.3738C29.9967 46.3137 46.3167 29.9937 66.3768 29.9937C68.6717 29.9937 70.9508 30.2071 73.1852 30.6297L30.6329 73.183C30.2101 70.9481 29.9967 68.6688 29.9967 66.3738ZM40 76.3801C37.6749 76.3801 35.4011 76.1582 33.196 75.7392L75.7392 33.1951C76.1582 35.4004 76.3801 37.6746 76.3801 40C76.3801 60.0601 60.0601 76.3801 40 76.3801Z" fill="white"/>
</g>
<defs>
<clipPath id="clip0_2621_732">
<rect width="80" height="80" fill="white"/>
</clipPath>
</defs>
</svg>
