<svg width="80" height="80" viewBox="0 0 80 80" fill="none" xmlns="http://www.w3.org/2000/svg">
<g clip-path="url(#clip0_2621_738)">
<path d="M78.443 16.3244C78.4313 16.3119 78.4191 16.2994 78.407 16.2873L76.3666 14.2468C76.3618 14.2421 76.3571 14.2372 76.3524 14.2325C76.3477 14.2278 76.3428 14.2231 76.3381 14.2184L66.9875 4.86756C66.9837 4.86357 66.9795 4.85959 66.9757 4.85561C66.9717 4.85163 66.9676 4.84765 66.9638 4.84384L64.9212 2.80122C64.909 2.78891 64.8964 2.77696 64.8839 2.76502C62.8414 0.836242 60.006 0.685828 57.8291 2.39143C57.8177 2.40029 57.8064 2.40934 57.7952 2.41839C42.8429 14.7212 11.5292 45.0229 11.2146 45.3273C10.8662 45.6649 10.6678 46.1281 10.6639 46.6132C10.6599 47.0982 10.851 47.5645 11.194 47.9075L12.1615 48.8748C11.9787 51.1614 11.0114 58.3172 5.96572 63.3629C4.89726 64.4315 4.93056 65.8017 5.42869 66.7395L0.529821 71.6409C0.110798 72.0603 -0.0765412 72.6585 0.028803 73.2421C0.134147 73.8256 0.51878 74.3205 1.05817 74.5668L9.95106 78.628C10.1922 78.738 10.4485 78.7916 10.7024 78.7916C11.1725 78.7916 11.6351 78.6086 11.9821 78.2622L14.468 75.779C15.4058 76.2773 16.7762 76.3108 17.845 75.2423C22.8662 70.2209 30.0459 69.2373 32.3351 69.0484L33.3004 70.0137C33.6434 70.3567 34.1036 70.55 34.5947 70.5436C35.0798 70.5398 35.543 70.3413 35.8806 69.993C36.1852 69.6785 66.4868 38.3648 78.7896 23.4126C78.7989 23.4014 78.8079 23.3902 78.8168 23.3788C80.5222 21.2022 80.3722 18.3672 78.443 16.3244ZM10.3125 74.8135L4.93274 72.3568L7.91586 69.3718L11.8357 73.2918L10.3125 74.8135ZM15.8252 72.1616L15.6795 72.0159C15.6787 72.015 15.6778 72.0141 15.6769 72.0134C15.6755 72.0119 15.674 72.0105 15.6728 72.0092L9.20551 65.542C9.20207 65.5385 9.19863 65.5351 9.19519 65.5317C9.19193 65.5284 9.18886 65.5253 9.1856 65.5221L9.04641 65.3831C13.0982 61.0361 14.7276 55.6691 15.3828 52.0965L29.1116 65.8252C25.5391 66.4803 20.172 68.1101 15.8252 72.1616ZM75.9788 21.1316C65.201 34.2263 40.4567 60.0281 34.5574 66.1514L34.3266 65.9204C34.323 65.9168 34.3194 65.9132 34.3158 65.9096L15.2957 46.8897C15.2937 46.8879 15.2919 46.8859 15.2901 46.8841L15.0566 46.6506C21.18 40.7514 46.9815 16.0074 60.0762 5.22938C60.6149 4.81362 61.4462 4.51098 62.3815 5.38124L63.1359 6.13567L30.1455 39.1259C29.146 40.1256 28.5953 41.4547 28.5953 42.8685C28.5953 44.2824 29.146 45.6115 30.1455 46.6112L34.5969 51.0628C36.6609 53.1264 40.0185 53.126 42.0821 51.0628L48.6889 44.456C49.3957 43.7491 49.3957 42.603 48.6889 41.896C47.9819 41.1892 46.8362 41.1892 46.129 41.896L39.5222 48.5028C38.87 49.155 37.8086 49.1552 37.1566 48.5028L32.7052 44.0512C32.3892 43.7352 32.2152 43.3153 32.2152 42.8684C32.2152 42.4217 32.3892 42.0015 32.7052 41.6857L65.6957 8.69542L72.5126 15.5126L51.2487 36.7763C50.5419 37.4831 50.5419 38.6293 51.2487 39.3363C51.9557 40.0429 53.1014 40.0429 53.8086 39.3363L75.0726 18.0723L75.8268 18.8266C76.6967 19.7614 76.3946 20.593 75.9788 21.1316Z" fill="white"/>
</g>
<defs>
<clipPath id="clip0_2621_738">
<rect width="80" height="80" fill="white"/>
</clipPath>
</defs>
</svg>
