<svg width="80" height="80" viewBox="0 0 80 80" fill="none" xmlns="http://www.w3.org/2000/svg">
<g clip-path="url(#clip0_2621_740)">
<path d="M16.0072 16.4055C11.9256 16.4055 8.60498 19.7261 8.60498 23.8077C8.60498 27.8893 11.9256 31.2099 16.0072 31.2099C20.0887 31.2099 23.4093 27.8893 23.4093 23.8077C23.4093 19.7261 20.0887 16.4055 16.0072 16.4055ZM16.0072 27.5088C13.9664 27.5088 12.3061 25.8485 12.3061 23.8077C12.3061 21.7669 13.9664 20.1066 16.0072 20.1066C18.0479 20.1066 19.7083 21.7669 19.7083 23.8077C19.7083 25.8485 18.0479 27.5088 16.0072 27.5088Z" fill="white"/>
<path d="M16.0072 44.719C11.9256 44.719 8.60498 48.0396 8.60498 52.1212C8.60498 56.2027 11.9256 59.5234 16.0072 59.5234C20.0887 59.5234 23.4093 56.2027 23.4093 52.1212C23.4093 48.0396 20.0887 44.719 16.0072 44.719ZM16.0072 55.8223C13.9664 55.8223 12.3061 54.162 12.3061 52.1212C12.3061 50.0804 13.9664 48.4201 16.0072 48.4201C18.0479 48.4201 19.7083 50.0804 19.7083 52.1212C19.7083 54.162 18.0479 55.8223 16.0072 55.8223Z" fill="white"/>
<path d="M72.6585 46.3526C69.6949 42.3262 66.1152 39.4053 62.1926 37.7372C67.0417 34.9834 70.3207 29.7715 70.3207 23.8078C70.3207 14.9814 63.1399 7.80054 54.3135 7.80054H16.0072C7.18086 7.80054 0 14.9814 0 23.8078C0 29.9401 3.46681 35.2773 8.54304 37.9644C3.46681 40.6516 0 45.9886 0 52.1211C0 60.9475 7.18086 68.1283 16.0072 68.1283H34.1076C35.1296 68.1283 35.9581 67.2998 35.9581 66.2778C35.9581 65.2557 35.1296 64.4272 34.1076 64.4272H26.2322C29.7629 61.4886 32.0144 57.063 32.0144 52.1211C32.0144 51.0337 31.9051 49.9715 31.6974 48.9445C35.605 54.4589 38.0202 62.0191 38.0202 70.349C38.0202 71.371 38.8487 72.1995 39.8707 72.1995H78.1496C79.1717 72.1995 80.0002 71.371 80.0002 70.349C80 61.3068 77.3928 52.7849 72.6585 46.3526ZM54.3135 11.5016C61.0991 11.5016 66.6196 17.0222 66.6196 23.8078C66.6196 30.5933 61.0991 36.1139 54.3135 36.1139H26.2322C29.7629 33.1752 32.0144 28.7496 32.0144 23.8078C32.0144 18.8659 29.7629 14.4403 26.2322 11.5016H54.3135ZM3.70109 23.8078C3.70109 17.0222 9.22164 11.5016 16.0072 11.5016C22.7928 11.5016 28.3133 17.0222 28.3133 23.8078C28.3133 30.5933 22.7928 36.1139 16.0072 36.1139C9.22164 36.1139 3.70109 30.5933 3.70109 23.8078ZM16.0072 64.4272C9.22164 64.4272 3.70109 58.9067 3.70109 52.1211C3.70109 45.3355 9.22164 39.815 16.0072 39.815C22.7928 39.815 28.3133 45.3355 28.3133 52.1211C28.3133 58.9067 22.7928 64.4272 16.0072 64.4272ZM41.6846 68.4984C41.3541 60.1488 38.7897 52.3445 34.3796 46.3528C32.4036 43.668 30.1537 41.4738 27.711 39.815H54.3135C65.9886 39.815 75.5676 52.5208 76.2589 68.4984H41.6846Z" fill="white"/>
</g>
<defs>
<clipPath id="clip0_2621_740">
<rect width="80" height="80" fill="white"/>
</clipPath>
</defs>
</svg>
