<svg width="80" height="80" viewBox="0 0 80 80" fill="none" xmlns="http://www.w3.org/2000/svg">
<path d="M60 10C57.3478 10 54.8043 11.0536 52.9289 12.9289C51.0536 14.8043 50 17.3478 50 20V60C50 62.6522 51.0536 65.1957 52.9289 67.0711C54.8043 68.9464 57.3478 70 60 70C62.6522 70 65.1957 68.9464 67.0711 67.0711C68.9464 65.1957 70 62.6522 70 60C70 57.3478 68.9464 54.8043 67.0711 52.9289C65.1957 51.0536 62.6522 50 60 50H20C17.3478 50 14.8043 51.0536 12.9289 52.9289C11.0536 54.8043 10 57.3478 10 60C10 62.6522 11.0536 65.1957 12.9289 67.0711C14.8043 68.9464 17.3478 70 20 70C22.6522 70 25.1957 68.9464 27.0711 67.0711C28.9464 65.1957 30 62.6522 30 60V20C30 17.3478 28.9464 14.8043 27.0711 12.9289C25.1957 11.0536 22.6522 10 20 10C17.3478 10 14.8043 11.0536 12.9289 12.9289C11.0536 14.8043 10 17.3478 10 20C10 22.6522 11.0536 25.1957 12.9289 27.0711C14.8043 28.9464 17.3478 30 20 30H60C62.6522 30 65.1957 28.9464 67.0711 27.0711C68.9464 25.1957 70 22.6522 70 20C70 17.3478 68.9464 14.8043 67.0711 12.9289C65.1957 11.0536 62.6522 10 60 10Z" stroke="#707070" stroke-width="2" stroke-linecap="round" stroke-linejoin="round"/>
</svg>
