<svg width="80" height="80" viewBox="0 0 80 80" fill="none" xmlns="http://www.w3.org/2000/svg">
<path d="M46.6668 6.66663H20.0002C18.2321 6.66663 16.5364 7.369 15.2861 8.61925C14.0359 9.86949 13.3335 11.5652 13.3335 13.3333V66.6666C13.3335 68.4347 14.0359 70.1304 15.2861 71.3807C16.5364 72.6309 18.2321 73.3333 20.0002 73.3333H60.0002C61.7683 73.3333 63.464 72.6309 64.7142 71.3807C65.9644 70.1304 66.6668 68.4347 66.6668 66.6666V26.6666L46.6668 6.66663Z" stroke="#707070" stroke-width="2" stroke-linecap="round" stroke-linejoin="round"/>
<path d="M46.6665 6.66663V26.6666H66.6665" stroke="#707070" stroke-width="2" stroke-linecap="round" stroke-linejoin="round"/>
<path d="M53.3332 43.3334H26.6665" stroke="#707070" stroke-width="2" stroke-linecap="round" stroke-linejoin="round"/>
<path d="M53.3332 56.6666H26.6665" stroke="#707070" stroke-width="2" stroke-linecap="round" stroke-linejoin="round"/>
<path d="M33.3332 30H29.9998H26.6665" stroke="#707070" stroke-width="2" stroke-linecap="round" stroke-linejoin="round"/>
</svg>
