<svg width="80" height="80" viewBox="0 0 80 80" fill="none" xmlns="http://www.w3.org/2000/svg">
<path d="M73.3332 40H53.3332L46.6665 50H33.3332L26.6665 40H6.6665" stroke="#707070" stroke-width="2" stroke-linecap="round" stroke-linejoin="round"/>
<path d="M18.1665 17.0333L6.6665 40V60C6.6665 61.7681 7.36888 63.4638 8.61913 64.714C9.86937 65.9643 11.5651 66.6666 13.3332 66.6666H66.6665C68.4346 66.6666 70.1303 65.9643 71.3805 64.714C72.6308 63.4638 73.3332 61.7681 73.3332 60V40L61.8332 17.0333C61.2812 15.9226 60.4304 14.9879 59.3764 14.3342C58.3223 13.6806 57.1068 13.334 55.8665 13.3333H24.1332C22.8929 13.334 21.6774 13.6806 20.6233 14.3342C19.5693 14.9879 18.7184 15.9226 18.1665 17.0333Z" stroke="#707070" stroke-width="2" stroke-linecap="round" stroke-linejoin="round"/>
</svg>
