<svg width="42" height="42" viewBox="0 0 42 42" fill="none" xmlns="http://www.w3.org/2000/svg">
<g clip-path="url(#clip0_2866_829)">
<path fill-rule="evenodd" clip-rule="evenodd" d="M37.4367 18.5429C36.4542 11.913 31.5576 6.56183 25.1702 4.91169C26.3712 11.752 30.9965 15.9336 37.4367 18.5429ZM4.43173 22.283C4.98685 29.5567 10.2233 35.5178 17.1354 37.1642C16.2556 29.542 11.3672 25.0238 4.43173 22.283ZM42 20.9993C42 28.0088 38.5132 34.593 32.5727 38.5234L31.4935 37.9786C25.0147 34.6751 22.1608 27.5091 19.2862 21.2619C17.0266 16.3512 14.6631 11.6525 10.9089 7.79658C7.77224 10.197 5.51587 13.6903 4.70902 17.7083C17.1636 22.1498 21.5285 29.219 21.6916 41.9885C21.5198 41.9711 21.193 41.9999 21 41.9999C9.40226 41.9999 0 32.5976 0 20.9993C0 12.8525 4.63942 5.78977 11.4199 2.30735C17.3458 7.4584 20.0447 12.4273 23.2672 19.4307C25.3969 24.0587 27.8577 30.3168 32.178 33.2952C35.0015 30.7267 36.937 27.1992 37.4693 23.2269C25.9401 19.0289 20.7042 12.2522 20.4476 0.00694188C32.2601 -0.293182 42 9.1765 42 20.9993Z" fill="#B69974"/>
</g>
<defs>
<clipPath id="clip0_2866_829">
<rect width="42" height="42" fill="white"/>
</clipPath>
</defs>
</svg>
