<svg width="25" height="25" viewBox="0 0 25 25" fill="none" xmlns="http://www.w3.org/2000/svg">
<g clip-path="url(#clip0_2606_505)">
<path d="M8.52371 10.7537H2.48514C1.87373 10.7531 1.28752 10.5101 0.855127 10.0778C0.422731 9.64554 0.179467 9.0594 0.178711 8.448V2.48443C0.179467 1.87302 0.422731 1.28688 0.855127 0.854622C1.28752 0.42236 1.87373 0.179278 2.48514 0.178711H8.52371C9.13499 0.179467 9.72102 0.422633 10.1533 0.854874C10.5855 1.28712 10.8287 1.87314 10.8294 2.48443V8.448C10.8287 9.05928 10.5855 9.64531 10.1533 10.0775C9.72102 10.5098 9.13499 10.753 8.52371 10.7537ZM2.48514 1.96443C2.34722 1.96461 2.21499 2.01944 2.1174 2.11689C2.01981 2.21435 1.9648 2.34651 1.96443 2.48443V8.448C1.9648 8.58592 2.01981 8.71807 2.1174 8.81553C2.21499 8.91299 2.34722 8.96781 2.48514 8.968H8.52371C8.66157 8.96781 8.79372 8.91296 8.8912 8.81548C8.98868 8.71801 9.04352 8.58585 9.04371 8.448V2.48443C9.04352 2.34657 8.98868 2.21442 8.8912 2.11694C8.79372 2.01946 8.66157 1.96461 8.52371 1.96443H2.48514Z" fill="#707070"/>
<path d="M8.55301 24.8216H2.51444C1.90297 24.8208 1.31676 24.5776 0.88438 24.1452C0.452005 23.7128 0.208764 23.1266 0.208008 22.5152V16.5523C0.208764 15.9409 0.452028 15.3548 0.884424 14.9225C1.31682 14.4902 1.90303 14.2471 2.51444 14.2466H8.55301C9.16404 14.2477 9.7497 14.491 10.1816 14.9232C10.6136 15.3555 10.8565 15.9413 10.8573 16.5523V22.5152C10.8567 23.1263 10.6138 23.7123 10.1819 24.1447C9.74994 24.577 9.16417 24.8204 8.55301 24.8216ZM2.51444 16.0323C2.37652 16.0325 2.24429 16.0873 2.1467 16.1848C2.0491 16.2822 1.9941 16.4144 1.99372 16.5523V22.5152C1.99391 22.6532 2.04883 22.7855 2.14644 22.8831C2.24406 22.9808 2.37639 23.0357 2.51444 23.0359H8.55301C8.69093 23.0355 8.82308 22.9805 8.92054 22.8829C9.018 22.7853 9.07282 22.6531 9.07301 22.5152V16.5523C9.07282 16.4144 9.01797 16.2823 8.9205 16.1848C8.82302 16.0873 8.69086 16.0325 8.55301 16.0323H2.51444Z" fill="#707070"/>
<path d="M22.5159 24.8216H16.4773C15.8659 24.8208 15.2796 24.5776 14.8473 24.1452C14.4149 23.7128 14.1717 23.1266 14.1709 22.5152V16.5523C14.1717 15.9409 14.4149 15.3548 14.8473 14.9225C15.2797 14.4902 15.8659 14.2471 16.4773 14.2466H22.5159C23.1272 14.2473 23.7132 14.4905 24.1454 14.9227C24.5777 15.355 24.8209 15.941 24.8216 16.5523V22.5152C24.821 23.1266 24.578 23.7128 24.1457 24.1452C23.7134 24.5776 23.1273 24.8208 22.5159 24.8216ZM16.4773 16.0359C16.3394 16.0361 16.2072 16.0909 16.1096 16.1883C16.012 16.2858 15.957 16.4179 15.9566 16.5559V22.5187C15.9568 22.6568 16.0117 22.7891 16.1093 22.8867C16.2069 22.9843 16.3393 23.0393 16.4773 23.0394H22.5159C22.6538 23.0391 22.786 22.9841 22.8834 22.8865C22.9809 22.7889 23.0357 22.6566 23.0359 22.5187V16.5523C23.0357 16.4144 22.9809 16.2823 22.8834 16.1848C22.7859 16.0873 22.6538 16.0325 22.5159 16.0323L16.4773 16.0359Z" fill="#707070"/>
<path d="M19.4998 10.7534C18.4561 10.7457 17.4381 10.4291 16.574 9.84358C15.71 9.25808 15.0386 8.42988 14.6446 7.46338C14.2505 6.49689 14.1515 5.43536 14.3598 4.41264C14.5682 3.38991 15.0747 2.45176 15.8154 1.71647C16.5562 0.981173 17.4981 0.481645 18.5223 0.280858C19.5465 0.0800719 20.6073 0.187016 21.5709 0.588207C22.5344 0.989399 23.3576 1.66688 23.9367 2.53524C24.5158 3.4036 24.8248 4.42396 24.8248 5.4677C24.8179 6.87421 24.2533 8.22054 23.2551 9.21142C22.2568 10.2023 20.9064 10.7568 19.4998 10.7534ZM19.4998 1.9677C18.8093 1.97545 18.1366 2.18729 17.5662 2.57656C16.9958 2.96582 16.5533 3.51512 16.2944 4.15531C16.0355 4.79549 15.9718 5.49795 16.1112 6.17428C16.2507 6.8506 16.5871 7.47056 17.0781 7.95613C17.5691 8.44169 18.1928 8.77115 18.8706 8.90304C19.5485 9.03494 20.2502 8.96337 20.8874 8.69735C21.5247 8.43133 22.069 7.98274 22.4519 7.40805C22.8348 6.83336 23.0391 6.15825 23.0391 5.4677C23.0335 4.53405 22.6576 3.64079 21.9941 2.98394C21.3305 2.32709 20.4335 1.96033 19.4998 1.96413V1.9677Z" fill="#707070"/>
</g>
<defs>
<clipPath id="clip0_2606_505">
<rect width="25" height="25" fill="white"/>
</clipPath>
</defs>
</svg>
