<svg width="39" height="42" viewBox="0 0 39 42" fill="none" xmlns="http://www.w3.org/2000/svg">
<g clip-path="url(#clip0_2406_15)">
<path fill-rule="evenodd" clip-rule="evenodd" d="M25.1643 17.0694C27.2111 19.2931 23.3714 23.2081 20.7058 20.7652C2.63384 6.62424 0.936114 37.584 18.8336 29.0806C23.419 26.9039 28.3218 22.848 31.2571 19.0896C37.9687 10.5392 26.8303 2.09852 20.0394 7.51686C16.6757 9.72491 13.915 4.99561 16.2949 3.10075C22.1497 -1.64421 30.8763 -0.861216 35.7632 4.88599C40.6818 10.6645 39.9044 19.3714 34.0338 24.226L23.4825 32.9643C23.3873 33.0426 23.308 33.1209 23.2286 33.1835L12.5822 42.0001L3.6493 31.4923C-7.25103 18.6667 8.07606 3.06943 25.1643 17.0694Z" fill="#B69974"/>
</g>
<defs>
<clipPath id="clip0_2406_15">
<rect width="39" height="42" fill="white"/>
</clipPath>
</defs>
</svg>
