<svg width="133" height="49" viewBox="0 0 133 49" fill="none" xmlns="http://www.w3.org/2000/svg">
<g clip-path="url(#clip0_2861_816)">
<path fill-rule="evenodd" clip-rule="evenodd" d="M40.1107 21.3674C39.0581 14.2639 33.8118 8.53053 26.9681 6.76252C28.2549 14.0915 33.2106 18.5718 40.1107 21.3674ZM4.74828 25.3747C5.34305 33.1679 10.9535 39.5548 18.3593 41.3188C17.4168 33.1521 12.1792 28.3112 4.74828 25.3747ZM45 23.9993C45 31.5094 41.2642 38.5639 34.8994 42.7751L33.743 42.1914C26.8015 38.6519 23.7437 30.974 20.6638 24.2806C18.2428 19.0192 15.7105 13.9848 11.6881 9.85348C8.3274 12.4254 5.90986 16.1682 5.04537 20.4732C18.3896 25.2319 23.0662 32.8061 23.241 46.4876C23.0569 46.469 22.7068 46.4999 22.5 46.4999C10.0739 46.4999 0 36.426 0 23.9993C0 15.2705 4.97081 7.70333 12.2357 3.97216C18.5848 9.49114 21.4765 14.815 24.9292 22.3187C27.211 27.2772 29.8476 33.9823 34.4764 37.1734C37.5016 34.4215 39.5754 30.642 40.1457 26.3859C27.793 21.8882 22.1831 14.6274 21.9081 1.50744C34.5644 1.18588 45 11.332 45 23.9993Z" fill="#B69974"/>
</g>
<path d="M67.08 23.4L67.52 22.88C69.1733 22.88 70.6133 23.1733 71.84 23.76C73.0933 24.3467 74.0533 25.1467 74.72 26.16C75.4133 27.1733 75.76 28.3467 75.76 29.68C75.76 31.0933 75.3867 32.3733 74.64 33.52C73.92 34.64 72.92 35.5333 71.64 36.2C70.3867 36.84 68.9733 37.16 67.4 37.16C66.6 37.16 65.6533 37.12 64.56 37.04C63.4667 36.96 62.4667 36.92 61.56 36.92C60.6533 36.92 59.7867 36.9333 58.96 36.96C58.1333 36.9867 57.3867 37 56.72 37C56.64 37 56.6 36.92 56.6 36.76C56.6 36.6 56.64 36.52 56.72 36.52C57.6 36.52 58.28 36.4533 58.76 36.32C59.24 36.1867 59.56 35.92 59.72 35.52C59.9067 35.12 60 34.5333 60 33.76V15.24C60 14.4667 59.92 13.8933 59.76 13.52C59.6 13.12 59.28 12.8533 58.8 12.72C58.3467 12.56 57.6667 12.48 56.76 12.48C56.7067 12.48 56.68 12.4 56.68 12.24C56.68 12.08 56.7067 12 56.76 12C57.4267 12 58.16 12.0267 58.96 12.08C59.7867 12.1067 60.6533 12.12 61.56 12.12C62.28 12.12 63.08 12.08 63.96 12C64.84 11.92 65.6267 11.88 66.32 11.88C67.92 11.88 69.2267 12.1067 70.24 12.56C71.28 12.9867 72.0533 13.6 72.56 14.4C73.0667 15.1733 73.32 16.08 73.32 17.12C73.32 18.6133 72.76 19.92 71.64 21.04C70.52 22.16 69 22.9467 67.08 23.4ZM65.56 12.56C64.9733 12.56 64.4933 12.6267 64.12 12.76C63.7733 12.8667 63.52 13.12 63.36 13.52C63.2267 13.8933 63.16 14.4933 63.16 15.32V23.16L61.84 22.84C62.6933 22.8933 63.4 22.9333 63.96 22.96C64.52 22.96 64.84 22.96 64.92 22.96C66.7867 22.96 68.1333 22.4267 68.96 21.36C69.7867 20.2933 70.2 18.9867 70.2 17.44C70.2 16.48 70.0267 15.64 69.68 14.92C69.36 14.1733 68.8667 13.6 68.2 13.2C67.5333 12.7733 66.6533 12.56 65.56 12.56ZM66.76 36.36C68.7067 36.36 70.12 35.8667 71 34.88C71.9067 33.8667 72.36 32.4533 72.36 30.64C72.36 28.6667 71.8133 27.0533 70.72 25.8C69.6267 24.52 68.0267 23.88 65.92 23.88C65.3867 23.8533 64.7733 23.8533 64.08 23.88C63.3867 23.9067 62.68 23.9733 61.96 24.08L63.16 23.64V33.76C63.16 34.3733 63.24 34.88 63.4 35.28C63.5867 35.6533 63.9333 35.9333 64.44 36.12C64.9733 36.28 65.7467 36.36 66.76 36.36ZM79.7725 37C79.6925 37 79.6525 36.92 79.6525 36.76C79.6525 36.6 79.6925 36.52 79.7725 36.52C80.7325 36.52 81.3725 36.3467 81.6925 36C82.0125 35.6267 82.1725 34.88 82.1725 33.76V26.4C82.1725 25.4667 82.0792 24.7867 81.8925 24.36C81.7058 23.9333 81.3725 23.72 80.8925 23.72C80.6792 23.72 80.4258 23.76 80.1325 23.84C79.8658 23.92 79.5458 24.0533 79.1725 24.24C79.0658 24.2667 78.9725 24.2133 78.8925 24.08C78.8392 23.92 78.8658 23.8133 78.9725 23.76L84.4125 21.24C84.4925 21.2133 84.5458 21.2 84.5725 21.2C84.6525 21.2 84.7325 21.24 84.8125 21.32C84.9192 21.4 84.9725 21.4933 84.9725 21.6C84.9725 21.84 84.9592 22.36 84.9325 23.16C84.9058 23.96 84.8925 25.0133 84.8925 26.32V33.76C84.8925 34.88 85.0392 35.6267 85.3325 36C85.6525 36.3467 86.3058 36.52 87.2925 36.52C87.3725 36.52 87.4125 36.6 87.4125 36.76C87.4125 36.92 87.3725 37 87.2925 37C86.8125 37 86.2392 36.9867 85.5725 36.96C84.9325 36.9333 84.2525 36.92 83.5325 36.92C82.8125 36.92 82.1325 36.9333 81.4925 36.96C80.8525 36.9867 80.2792 37 79.7725 37ZM83.2925 16.72C82.6792 16.72 82.1992 16.56 81.8525 16.24C81.5058 15.8933 81.3325 15.4133 81.3325 14.8C81.3325 14.2133 81.5058 13.76 81.8525 13.44C82.1992 13.12 82.6792 12.96 83.2925 12.96C83.9058 12.96 84.3725 13.12 84.6925 13.44C85.0125 13.76 85.1725 14.2133 85.1725 14.8C85.1725 16.08 84.5458 16.72 83.2925 16.72ZM90.1538 36.52L99.5538 22.36C99.6604 22.1733 99.5938 22.08 99.3538 22.08C97.5671 22.08 96.0871 22.2 94.9138 22.44C93.7404 22.6533 92.8071 23.0267 92.1138 23.56C91.4204 24.0933 90.9138 24.8667 90.5938 25.88C90.5671 25.9333 90.4738 25.9467 90.3138 25.92C90.1804 25.8933 90.1271 25.84 90.1538 25.76L91.5938 20.28C91.6204 20.2267 91.7138 20.2133 91.8738 20.24C92.0338 20.24 92.1004 20.2667 92.0738 20.32C91.9404 20.8267 92.0204 21.16 92.3138 21.32C92.6338 21.48 93.1938 21.56 93.9938 21.56C94.9804 21.56 96.1938 21.56 97.6338 21.56C99.0738 21.56 100.754 21.56 102.674 21.56C102.807 21.56 102.9 21.6133 102.954 21.72C103.034 21.8267 103.047 21.9333 102.994 22.04L93.6738 36.08C93.5671 36.2667 93.6338 36.36 93.8737 36.36C95.5538 36.36 96.9271 36.3067 97.9938 36.2C99.0604 36.0933 99.9138 35.8933 100.554 35.6C101.22 35.3067 101.74 34.8933 102.114 34.36C102.487 33.8 102.794 33.0933 103.034 32.24C103.06 32.16 103.14 32.12 103.274 32.12C103.407 32.12 103.474 32.16 103.474 32.24L103.394 36.56C103.394 36.6667 103.354 36.7733 103.274 36.88C103.22 36.96 103.14 37 103.034 37C101.754 37 100.394 37 98.9538 37C97.5138 37 96.0604 37 94.5938 37C93.1538 37 91.7671 37 90.4338 37C90.3271 37 90.2338 36.9467 90.1538 36.84C90.1004 36.7333 90.1004 36.6267 90.1538 36.52ZM106.325 37C106.271 37 106.245 36.92 106.245 36.76C106.245 36.6 106.271 36.52 106.325 36.52C107.311 36.52 107.951 36.3467 108.245 36C108.565 35.6267 108.725 34.88 108.725 33.76L108.765 13.2C108.765 12.2667 108.671 11.5867 108.485 11.16C108.325 10.7333 108.005 10.52 107.525 10.52C107.125 10.52 106.551 10.6933 105.805 11.04C105.698 11.0933 105.605 11.04 105.525 10.88C105.471 10.72 105.485 10.6267 105.565 10.6L110.925 8.04C110.978 8.01333 111.031 8 111.085 8C111.165 8 111.258 8.04 111.365 8.12C111.498 8.2 111.565 8.29333 111.565 8.4V33.76C111.565 34.8533 111.711 35.5867 112.005 35.96C112.298 36.3333 112.938 36.52 113.925 36.52C114.031 36.52 114.085 36.6 114.085 36.76C114.085 36.92 114.031 37 113.925 37C113.445 37 112.871 36.9867 112.205 36.96C111.565 36.9333 110.871 36.92 110.125 36.92C109.405 36.92 108.711 36.9333 108.045 36.96C107.405 36.9867 106.831 37 106.325 37ZM132.594 21.56C132.674 21.56 132.714 21.64 132.714 21.8C132.714 21.96 132.674 22.04 132.594 22.04C131.848 22.04 131.208 22.32 130.674 22.88C130.168 23.44 129.701 24.3067 129.274 25.48L124.514 38.12C123.554 40.68 122.634 42.6933 121.754 44.16C120.874 45.6533 119.968 46.7067 119.034 47.32C118.101 47.9333 117.074 48.24 115.954 48.24C115.341 48.24 114.834 48.0933 114.434 47.8C114.008 47.5333 113.794 47.12 113.794 46.56C113.794 46.08 113.941 45.72 114.234 45.48C114.528 45.2667 114.861 45.16 115.234 45.16C115.741 45.16 116.128 45.24 116.394 45.4C116.661 45.56 116.928 45.72 117.194 45.88C117.461 46.04 117.808 46.12 118.234 46.12C118.874 46.12 119.488 45.8267 120.074 45.24C120.661 44.6533 121.288 43.6533 121.954 42.24C122.621 40.8533 123.394 38.9467 124.274 36.52L124.234 38L117.754 24.88C117.168 23.7067 116.701 22.9467 116.354 22.6C116.034 22.2267 115.634 22.04 115.154 22.04C115.074 22.04 115.034 21.96 115.034 21.8C115.034 21.64 115.074 21.56 115.154 21.56C115.608 21.56 116.088 21.5733 116.594 21.6C117.101 21.6267 117.581 21.64 118.034 21.64C118.941 21.64 119.728 21.6267 120.394 21.6C121.088 21.5733 121.714 21.56 122.274 21.56C122.328 21.56 122.354 21.64 122.354 21.8C122.354 21.96 122.328 22.04 122.274 22.04C121.394 22.04 120.754 22.1467 120.354 22.36C119.981 22.5733 119.941 22.9867 120.234 23.6L125.634 34.6L124.514 36.48L128.314 25.56C128.741 24.3333 128.741 23.44 128.314 22.88C127.914 22.32 127.061 22.04 125.754 22.04C125.701 22.04 125.674 21.96 125.674 21.8C125.674 21.64 125.701 21.56 125.754 21.56C126.394 21.56 126.994 21.5733 127.554 21.6C128.141 21.6267 128.888 21.64 129.794 21.64C130.381 21.64 130.861 21.6267 131.234 21.6C131.634 21.5733 132.088 21.56 132.594 21.56Z" fill="#1C1A1D"/>
<defs>
<clipPath id="clip0_2861_816">
<rect width="45" height="45" fill="white" transform="translate(0 1.5)"/>
</clipPath>
</defs>
</svg>
