<svg width="77" height="41" viewBox="0 0 77 41" fill="none" xmlns="http://www.w3.org/2000/svg">
<path d="M11.08 15.4L11.52 14.88C13.1733 14.88 14.6133 15.1733 15.84 15.76C17.0933 16.3467 18.0533 17.1467 18.72 18.16C19.4133 19.1733 19.76 20.3467 19.76 21.68C19.76 23.0933 19.3867 24.3733 18.64 25.52C17.92 26.64 16.92 27.5333 15.64 28.2C14.3867 28.84 12.9733 29.16 11.4 29.16C10.6 29.16 9.65333 29.12 8.56 29.04C7.46667 28.96 6.46667 28.92 5.56 28.92C4.65333 28.92 3.78667 28.9333 2.96 28.96C2.13333 28.9867 1.38667 29 0.72 29C0.64 29 0.6 28.92 0.6 28.76C0.6 28.6 0.64 28.52 0.72 28.52C1.6 28.52 2.28 28.4533 2.76 28.32C3.24 28.1867 3.56 27.92 3.72 27.52C3.90667 27.12 4 26.5333 4 25.76V7.24C4 6.46667 3.92 5.89333 3.76 5.52C3.6 5.12 3.28 4.85333 2.8 4.72C2.34667 4.56 1.66667 4.48 0.76 4.48C0.706667 4.48 0.68 4.4 0.68 4.24C0.68 4.08 0.706667 4 0.76 4C1.42667 4 2.16 4.02667 2.96 4.08C3.78667 4.10667 4.65333 4.12 5.56 4.12C6.28 4.12 7.08 4.08 7.96 4C8.84 3.92 9.62667 3.88 10.32 3.88C11.92 3.88 13.2267 4.10667 14.24 4.56C15.28 4.98667 16.0533 5.6 16.56 6.4C17.0667 7.17333 17.32 8.08 17.32 9.12C17.32 10.6133 16.76 11.92 15.64 13.04C14.52 14.16 13 14.9467 11.08 15.4ZM9.56 4.56C8.97333 4.56 8.49333 4.62667 8.12 4.76C7.77333 4.86667 7.52 5.12 7.36 5.52C7.22667 5.89333 7.16 6.49333 7.16 7.32V15.16L5.84 14.84C6.69333 14.8933 7.4 14.9333 7.96 14.96C8.52 14.96 8.84 14.96 8.92 14.96C10.7867 14.96 12.1333 14.4267 12.96 13.36C13.7867 12.2933 14.2 10.9867 14.2 9.44C14.2 8.48 14.0267 7.64 13.68 6.92C13.36 6.17333 12.8667 5.6 12.2 5.2C11.5333 4.77333 10.6533 4.56 9.56 4.56ZM10.76 28.36C12.7067 28.36 14.12 27.8667 15 26.88C15.9067 25.8667 16.36 24.4533 16.36 22.64C16.36 20.6667 15.8133 19.0533 14.72 17.8C13.6267 16.52 12.0267 15.88 9.92 15.88C9.38667 15.8533 8.77333 15.8533 8.08 15.88C7.38667 15.9067 6.68 15.9733 5.96 16.08L7.16 15.64V25.76C7.16 26.3733 7.24 26.88 7.4 27.28C7.58667 27.6533 7.93333 27.9333 8.44 28.12C8.97333 28.28 9.74667 28.36 10.76 28.36ZM23.7725 29C23.6925 29 23.6525 28.92 23.6525 28.76C23.6525 28.6 23.6925 28.52 23.7725 28.52C24.7325 28.52 25.3725 28.3467 25.6925 28C26.0125 27.6267 26.1725 26.88 26.1725 25.76V18.4C26.1725 17.4667 26.0792 16.7867 25.8925 16.36C25.7058 15.9333 25.3725 15.72 24.8925 15.72C24.6792 15.72 24.4258 15.76 24.1325 15.84C23.8658 15.92 23.5458 16.0533 23.1725 16.24C23.0658 16.2667 22.9725 16.2133 22.8925 16.08C22.8392 15.92 22.8658 15.8133 22.9725 15.76L28.4125 13.24C28.4925 13.2133 28.5458 13.2 28.5725 13.2C28.6525 13.2 28.7325 13.24 28.8125 13.32C28.9192 13.4 28.9725 13.4933 28.9725 13.6C28.9725 13.84 28.9592 14.36 28.9325 15.16C28.9058 15.96 28.8925 17.0133 28.8925 18.32V25.76C28.8925 26.88 29.0392 27.6267 29.3325 28C29.6525 28.3467 30.3058 28.52 31.2925 28.52C31.3725 28.52 31.4125 28.6 31.4125 28.76C31.4125 28.92 31.3725 29 31.2925 29C30.8125 29 30.2392 28.9867 29.5725 28.96C28.9325 28.9333 28.2525 28.92 27.5325 28.92C26.8125 28.92 26.1325 28.9333 25.4925 28.96C24.8525 28.9867 24.2792 29 23.7725 29ZM27.2925 8.72C26.6792 8.72 26.1992 8.56 25.8525 8.24C25.5058 7.89333 25.3325 7.41333 25.3325 6.8C25.3325 6.21333 25.5058 5.76 25.8525 5.44C26.1992 5.12 26.6792 4.96 27.2925 4.96C27.9058 4.96 28.3725 5.12 28.6925 5.44C29.0125 5.76 29.1725 6.21333 29.1725 6.8C29.1725 8.08 28.5458 8.72 27.2925 8.72ZM34.1538 28.52L43.5538 14.36C43.6604 14.1733 43.5938 14.08 43.3538 14.08C41.5671 14.08 40.0871 14.2 38.9138 14.44C37.7404 14.6533 36.8071 15.0267 36.1138 15.56C35.4204 16.0933 34.9138 16.8667 34.5938 17.88C34.5671 17.9333 34.4738 17.9467 34.3138 17.92C34.1804 17.8933 34.1271 17.84 34.1538 17.76L35.5938 12.28C35.6204 12.2267 35.7138 12.2133 35.8738 12.24C36.0338 12.24 36.1004 12.2667 36.0738 12.32C35.9404 12.8267 36.0204 13.16 36.3138 13.32C36.6338 13.48 37.1938 13.56 37.9938 13.56C38.9804 13.56 40.1938 13.56 41.6338 13.56C43.0738 13.56 44.7538 13.56 46.6738 13.56C46.8071 13.56 46.9004 13.6133 46.9538 13.72C47.0338 13.8267 47.0471 13.9333 46.9938 14.04L37.6738 28.08C37.5671 28.2667 37.6338 28.36 37.8737 28.36C39.5538 28.36 40.9271 28.3067 41.9938 28.2C43.0604 28.0933 43.9138 27.8933 44.5538 27.6C45.2204 27.3067 45.7404 26.8933 46.1138 26.36C46.4871 25.8 46.7938 25.0933 47.0338 24.24C47.0604 24.16 47.1404 24.12 47.2738 24.12C47.4071 24.12 47.4738 24.16 47.4738 24.24L47.3938 28.56C47.3938 28.6667 47.3538 28.7733 47.2738 28.88C47.2204 28.96 47.1404 29 47.0338 29C45.7538 29 44.3938 29 42.9538 29C41.5138 29 40.0604 29 38.5938 29C37.1538 29 35.7671 29 34.4338 29C34.3271 29 34.2338 28.9467 34.1538 28.84C34.1004 28.7333 34.1004 28.6267 34.1538 28.52ZM50.3247 29C50.2714 29 50.2447 28.92 50.2447 28.76C50.2447 28.6 50.2714 28.52 50.3247 28.52C51.3114 28.52 51.9514 28.3467 52.2447 28C52.5647 27.6267 52.7247 26.88 52.7247 25.76L52.7647 5.2C52.7647 4.26666 52.6714 3.58666 52.4847 3.16C52.3247 2.73333 52.0047 2.52 51.5247 2.52C51.1247 2.52 50.5514 2.69333 49.8047 3.04C49.698 3.09333 49.6047 3.04 49.5247 2.88C49.4714 2.72 49.4847 2.62667 49.5647 2.6L54.9247 0.0399985C54.978 0.0133322 55.0314 -9.53674e-07 55.0847 -9.53674e-07C55.1647 -9.53674e-07 55.258 0.0399985 55.3647 0.119998C55.498 0.199998 55.5647 0.293332 55.5647 0.399999V25.76C55.5647 26.8533 55.7114 27.5867 56.0047 27.96C56.298 28.3333 56.938 28.52 57.9247 28.52C58.0314 28.52 58.0847 28.6 58.0847 28.76C58.0847 28.92 58.0314 29 57.9247 29C57.4447 29 56.8714 28.9867 56.2047 28.96C55.5647 28.9333 54.8714 28.92 54.1247 28.92C53.4047 28.92 52.7114 28.9333 52.0447 28.96C51.4047 28.9867 50.8314 29 50.3247 29ZM76.5944 13.56C76.6744 13.56 76.7144 13.64 76.7144 13.8C76.7144 13.96 76.6744 14.04 76.5944 14.04C75.8477 14.04 75.2077 14.32 74.6744 14.88C74.1677 15.44 73.701 16.3067 73.2744 17.48L68.5144 30.12C67.5544 32.68 66.6344 34.6933 65.7544 36.16C64.8744 37.6533 63.9677 38.7067 63.0344 39.32C62.101 39.9333 61.0744 40.24 59.9544 40.24C59.341 40.24 58.8344 40.0933 58.4344 39.8C58.0077 39.5333 57.7944 39.12 57.7944 38.56C57.7944 38.08 57.941 37.72 58.2344 37.48C58.5277 37.2667 58.861 37.16 59.2344 37.16C59.741 37.16 60.1277 37.24 60.3944 37.4C60.661 37.56 60.9277 37.72 61.1944 37.88C61.461 38.04 61.8077 38.12 62.2344 38.12C62.8744 38.12 63.4877 37.8267 64.0744 37.24C64.661 36.6533 65.2877 35.6533 65.9544 34.24C66.621 32.8533 67.3944 30.9467 68.2744 28.52L68.2344 30L61.7544 16.88C61.1677 15.7067 60.701 14.9467 60.3544 14.6C60.0344 14.2267 59.6344 14.04 59.1544 14.04C59.0744 14.04 59.0344 13.96 59.0344 13.8C59.0344 13.64 59.0744 13.56 59.1544 13.56C59.6077 13.56 60.0877 13.5733 60.5944 13.6C61.101 13.6267 61.581 13.64 62.0344 13.64C62.941 13.64 63.7277 13.6267 64.3944 13.6C65.0877 13.5733 65.7144 13.56 66.2744 13.56C66.3277 13.56 66.3544 13.64 66.3544 13.8C66.3544 13.96 66.3277 14.04 66.2744 14.04C65.3944 14.04 64.7544 14.1467 64.3544 14.36C63.981 14.5733 63.941 14.9867 64.2344 15.6L69.6344 26.6L68.5144 28.48L72.3144 17.56C72.741 16.3333 72.741 15.44 72.3144 14.88C71.9144 14.32 71.061 14.04 69.7544 14.04C69.701 14.04 69.6744 13.96 69.6744 13.8C69.6744 13.64 69.701 13.56 69.7544 13.56C70.3944 13.56 70.9944 13.5733 71.5544 13.6C72.141 13.6267 72.8877 13.64 73.7944 13.64C74.381 13.64 74.861 13.6267 75.2344 13.6C75.6344 13.5733 76.0877 13.56 76.5944 13.56Z" fill="white"/>
</svg>
